<svg xmlns="http://www.w3.org/2000/svg" xml:space="preserve" fill-rule="evenodd" stroke-linejoin="round" stroke-miterlimit="2" clip-rule="evenodd" viewBox="0 0 383 110">
              <g fill-rule="nonzero">
                <path fill="#002147" d="M50.854 99.007c.25-2.903 2.815-5.045 5.715-4.792a5.257 5.257 0 0 1 4.784 5.703 5.266 5.266 0 0 1-6.396 4.684 5.263 5.263 0 0 1-4.103-5.595ZM39.714 100.651l-.002.011a5.273 5.273 0 0 1-2.725-6.937 5.255 5.255 0 0 1 6.93-2.738 5.28 5.28 0 0 1 2.735 6.94 5.278 5.278 0 0 1-5.97 3.046 4.72 4.72 0 0 1-.968-.322Z"></path>
                <path fill="#ffd13a" d="M65.694 99.586c-.697-2.828 1.029-5.685 3.856-6.371a5.259 5.259 0 0 1 6.371 3.855c.697 2.83-1.029 5.687-3.855 6.372l-.003.012a5.245 5.245 0 0 1-2.389.024 5.257 5.257 0 0 1-3.98-3.892Z"></path>
                <path fill="#002147" d="M25.886 91.718a5.263 5.263 0 0 1-.35-7.443 5.266 5.266 0 0 1 7.445-.36 5.286 5.286 0 0 1 .347 7.452 5.274 5.274 0 0 1-7.442.351Z"></path>
                <path fill="#ffb700" d="M79.914 95.364a5.278 5.278 0 0 1 1.599-7.283 5.266 5.266 0 0 1 7.283 1.597c1.57 2.447.85 5.712-1.597 7.284l.002-.012a5.237 5.237 0 0 1-3.981.715 5.286 5.286 0 0 1-3.306-2.301Z"></path>
                <path fill="#002147" d="M15.676 78.804a5.28 5.28 0 0 1 2.059-7.168 5.263 5.263 0 0 1 7.158 2.067 5.263 5.263 0 0 1-2.058 7.16 5.231 5.231 0 0 1-3.683.542 5.24 5.24 0 0 1-3.476-2.601Z"></path>
                <path fill="#ff7c00" d="M92.028 86.763a5.286 5.286 0 0 1-.888-7.41 5.292 5.292 0 0 1 7.406-.876c2.288 1.804 2.672 5.118.878 7.407a5.24 5.24 0 0 1-5.277 1.877 5.114 5.114 0 0 1-2.119-.998Z"></path>
                <path fill="#002147" d="M10.171 63.271a5.265 5.265 0 0 1 4.283-6.103 5.262 5.262 0 0 1 6.097 4.27 5.255 5.255 0 0 1-4.272 6.106c-.7.127-1.388.105-2.049-.041a5.276 5.276 0 0 1-4.059-4.232Z"></path>
                <path fill="#ff7c00" d="M100.614 74.656a5.282 5.282 0 0 1-3.274-6.702l.01.003c.01-.041.019-.083.04-.131a5.272 5.272 0 0 1 6.676-3.304 5.261 5.261 0 0 1 3.312 6.678c-.009.042-.026.069-.033.1-.018.029-.023.062-.027.081a5.27 5.27 0 0 1-6.12 3.435 5.669 5.669 0 0 1-.584-.16Z"></path>
                <path fill="#40b5ff" d="M10.069 46.765a5.275 5.275 0 0 1 10.41 1.704 5.276 5.276 0 0 1-6.062 4.348 2.671 2.671 0 0 1-.281-.052 5.284 5.284 0 0 1-4.067-6Z"></path>
                <path fill="#f20c51" d="M99.464 55.005a5.264 5.264 0 0 1 5.224-5.312A5.264 5.264 0 0 1 110 54.917a5.28 5.28 0 0 1-5.227 5.322 5.614 5.614 0 0 1-1.184-.13 5.27 5.27 0 0 1-4.125-5.104Z"></path>
                <path fill="#5971f2" d="M17.538 38.299a5.258 5.258 0 0 1-2.127-7.141 5.267 5.267 0 0 1 7.141-2.128 5.267 5.267 0 0 1 2.127 7.142 5.279 5.279 0 0 1-5.772 2.646 4.997 4.997 0 0 1-1.369-.519Z"></path>
                <path fill="#f20c51" d="M97.185 42.22a5.278 5.278 0 0 1 3.198-6.735 5.279 5.279 0 0 1 6.735 3.199 5.276 5.276 0 0 1-3.198 6.734 5.277 5.277 0 0 1-6.735-3.198Z"></path>
                <path fill="#5324b3" d="M25.234 25.615c-1.948-2.163-1.797-5.497.355-7.448a5.272 5.272 0 0 1 7.449.355 5.26 5.26 0 0 1-.354 7.438A5.242 5.242 0 0 1 28 27.212a5.337 5.337 0 0 1-2.766-1.597Z"></path>
                <path fill="#ff7cff" d="M90.873 30.84a5.271 5.271 0 0 1 8.251-6.561 5.274 5.274 0 0 1-.845 7.406 5.258 5.258 0 0 1-4.417 1.017 5.229 5.229 0 0 1-2.989-1.862Z"></path>
                <path fill="#5324b3" d="M36.699 16.168c-1.154-2.669.083-5.765 2.752-6.92a5.27 5.27 0 0 1 6.93 2.755c1.154 2.67-.083 5.775-2.754 6.931a5.302 5.302 0 0 1-3.219.306 5.244 5.244 0 0 1-3.709-3.072Z"></path>
                <path fill="#ff7cff" d="M81.216 22.089a5.275 5.275 0 0 1-1.586-7.282 5.273 5.273 0 0 1 7.291-1.574 5.262 5.262 0 0 1 1.574 7.281 5.275 5.275 0 0 1-5.565 2.301 5.007 5.007 0 0 1-1.714-.726Z"></path>
                <path fill="#9b54e6" d="M50.588 10.951a5.273 5.273 0 1 1 5.676 4.849 5.595 5.595 0 0 1-1.556-.116 5.277 5.277 0 0 1-4.12-4.733ZM69.247 16.901a5.268 5.268 0 0 1-3.819-6.399 5.262 5.262 0 0 1 6.398-3.818l.011.002a5.272 5.272 0 0 1 3.807 6.408 5.269 5.269 0 0 1-6.244 3.851c-.053-.011-.102-.032-.153-.044Z"></path>
                <path fill="#002147" d="M58.621 92.352a3.689 3.689 0 1 1 .247-7.372 3.671 3.671 0 0 1 3.556 3.806 3.684 3.684 0 0 1-3.337 3.556 3.481 3.481 0 0 1-.466.01Z"></path>
                <path fill="#ffd13a" d="M65.756 88.384a3.684 3.684 0 0 1 2.531-4.566 3.692 3.692 0 0 1 2.025 7.1 3.687 3.687 0 0 1-4.556-2.534Z"></path>
                <path fill="#002147" d="M47.056 90.143c-1.923-.693-2.923-2.799-2.239-4.71.684-1.922 2.799-2.935 4.711-2.239a3.687 3.687 0 1 1-2.472 6.949Z"></path>
                <path fill="#ffb700" d="M75.89 84.956a3.688 3.688 0 0 1 1.006-5.126 3.689 3.689 0 0 1 5.115 1.015 3.69 3.69 0 0 1-1.005 5.117 3.645 3.645 0 0 1-1.718.604 3.676 3.676 0 0 1-3.398-1.61Z"></path>
                <path fill="#002147" d="M36.705 84.531a3.686 3.686 0 0 1-.698-5.173 3.696 3.696 0 0 1 5.173-.698 3.695 3.695 0 0 1 .698 5.173 3.675 3.675 0 0 1-2.597 1.438 3.642 3.642 0 0 1-2.576-.74Z"></path>
                <path fill="#ff7c00" d="M84.468 78.571a3.691 3.691 0 0 1-.633-5.177c1.241-1.612 3.563-1.901 5.176-.645a3.691 3.691 0 0 1 .635 5.177 3.664 3.664 0 0 1-2.568 1.406 3.7 3.7 0 0 1-2.61-.761Z"></path>
                <path fill="#002147" d="M28.553 76.02a3.693 3.693 0 0 1 .928-5.141 3.683 3.683 0 0 1 5.132.931 3.68 3.68 0 0 1-.921 5.129 3.64 3.64 0 0 1-1.767.65 3.72 3.72 0 0 1-3.372-1.569Z"></path>
                <path fill="#ff7c00" d="M90.62 69.808a3.686 3.686 0 0 1-2.239-4.712c.02-.032.027-.057.036-.088a3.682 3.682 0 0 1 4.7-2.248 3.68 3.68 0 0 1 2.248 4.71l.001.011a.415.415 0 0 1-.034.099 3.697 3.697 0 0 1-3.144 2.436 3.657 3.657 0 0 1-1.568-.208Z"></path>
                <path fill="#002147" d="M23.416 65.414a3.691 3.691 0 0 1 2.455-4.602 3.682 3.682 0 0 1 4.6 2.456 3.68 3.68 0 0 1-3.196 4.745 3.685 3.685 0 0 1-3.859-2.599Z"></path>
                <path fill="#f20c51" d="M93.728 59.476a3.696 3.696 0 0 1-3.607-3.777 3.702 3.702 0 0 1 3.768-3.608 3.685 3.685 0 0 1 3.606 3.768l.011-.001a3.712 3.712 0 0 1-3.355 3.601c-.137.013-.276.014-.423.017Z"></path>
                <path fill="#40b5ff" d="M25.417 57.489a3.68 3.68 0 0 1-3.606-3.768 3.683 3.683 0 0 1 3.781-3.598c2.03.037 3.641 1.727 3.595 3.769a3.683 3.683 0 0 1-3.345 3.589 2.867 2.867 0 0 1-.425.008Z"></path>
                <path fill="#f20c51" d="M88.824 46.322a3.689 3.689 0 0 1 2.445-4.6 3.688 3.688 0 1 1-2.445 4.6Z"></path>
                <path fill="#5971f2" d="M26.201 46.828a3.698 3.698 0 0 1-2.24-4.721 3.692 3.692 0 0 1 6.952 2.484 3.687 3.687 0 0 1-3.132 2.432 3.66 3.66 0 0 1-1.58-.195Z"></path>
                <path fill="#ff7cff" d="M84.673 37.793a3.684 3.684 0 0 1 .919-5.14 3.69 3.69 0 0 1 5.129.92 3.686 3.686 0 0 1-.907 5.14 3.69 3.69 0 0 1-1.779.64 3.68 3.68 0 0 1-3.362-1.56Z"></path>
                <path fill="#5971f2" d="M30.284 36.938a3.707 3.707 0 0 1-.658-5.187 3.713 3.713 0 0 1 5.187-.645 3.69 3.69 0 0 1 .646 5.176 3.672 3.672 0 0 1-2.579 1.415 3.675 3.675 0 0 1-2.596-.759Z"></path>
                <path fill="#ff7cff" d="M78.096 30.942a3.694 3.694 0 0 1-.698-5.171 3.693 3.693 0 0 1 5.173-.699 3.692 3.692 0 0 1-1.9 6.611 3.673 3.673 0 0 1-2.575-.741Z"></path>
                <path fill="#5324b3" d="M37.261 28.83a3.7 3.7 0 0 1 1.003-5.127 3.69 3.69 0 0 1 5.117 1.007 3.675 3.675 0 0 1-.995 5.114 3.687 3.687 0 0 1-5.125-.994Z"></path>
                <path fill="#9b54e6" d="M69.738 26.431a3.686 3.686 0 0 1-2.237-4.712c.674-1.92 2.792-2.922 4.712-2.238a3.686 3.686 0 0 1-.905 7.146 3.654 3.654 0 0 1-1.57-.196Z"></path>
                <path fill="#5324b3" d="M46.416 23.295c-.562-1.955.578-3.992 2.533-4.566a3.698 3.698 0 0 1 4.565 2.534 3.695 3.695 0 0 1-3.211 4.692 3.7 3.7 0 0 1-3.887-2.66Z"></path>
                <path fill="#9b54e6" d="M60.4 24.655a3.689 3.689 0 1 1 .247-7.373 3.68 3.68 0 0 1 3.556 3.805 3.685 3.685 0 0 1-3.803 3.568Z"></path>
                <path fill="#002147" d="M47.233 79.611a3.053 3.053 0 0 1-1.36-4.093 3.046 3.046 0 0 1 4.093-1.361 3.053 3.053 0 0 1 1.36 4.094 3.044 3.044 0 0 1-3.656 1.533 4.037 4.037 0 0 1-.437-.173ZM55.457 79.335a3.048 3.048 0 0 1 3.198-2.902 3.04 3.04 0 0 1 2.892 3.195 3.048 3.048 0 0 1-3.196 2.903 3.059 3.059 0 0 1-2.894-3.196ZM38.239 72.466a3.041 3.041 0 0 1 .386-4.29 3.034 3.034 0 0 1 4.292.386 3.035 3.035 0 0 1-.386 4.29 3.02 3.02 0 0 1-2.892.559 2.978 2.978 0 0 1-1.4-.945Z"></path>
                <path fill="#ffd13a" d="M65.774 78.952a3.035 3.035 0 0 1 1.733-3.942 3.056 3.056 0 0 1 3.952 1.734 3.06 3.06 0 0 1-1.744 3.951 3.038 3.038 0 0 1-3.941-1.743Z"></path>
                <path fill="#002147" d="M32.841 62.312a3.052 3.052 0 0 1 2.095-3.771 3.051 3.051 0 0 1 3.777 2.086 3.053 3.053 0 0 1-2.095 3.771 2.985 2.985 0 0 1-1.772-.023 3.069 3.069 0 0 1-2.005-2.063Z"></path>
                <path fill="#ff7c00" d="M75.016 74.386a3.053 3.053 0 0 1-.074-4.29c.028-.022.046-.049.076-.072a3.046 3.046 0 0 1 4.309-.067 3.057 3.057 0 0 1 .081 4.301c-.029.023-.05.059-.081.082a3.032 3.032 0 0 1-3.116.763 3.083 3.083 0 0 1-1.195-.717Z"></path>
                <path fill="#40b5ff" d="M32.015 50.844a3.048 3.048 0 1 1 6.038.822 3.046 3.046 0 0 1-3.436 2.611 3.04 3.04 0 0 1-.531-.116 3.038 3.038 0 0 1-2.071-3.317Z"></path>
                <path fill="#ff7c00" d="M81.599 66.337a3.052 3.052 0 0 1-1.842-3.896l.012-.008a3.03 3.03 0 0 1 3.893-1.83 3.044 3.044 0 0 1 1.839 3.904l.004-.01a3.053 3.053 0 0 1-3.802 1.883.356.356 0 0 1-.104-.043Z"></path>
                <path fill="#5971f2" d="M36.895 44.219a3.054 3.054 0 0 1 3.252-5.168 3.059 3.059 0 0 1 .958 4.21l-.011-.003a3.043 3.043 0 0 1-4.199.961Z"></path>
                <path fill="#f20c51" d="M80.962 53.548a3.048 3.048 0 0 1 2.821-3.261 3.032 3.032 0 0 1 3.261 2.81 3.046 3.046 0 0 1-3.969 3.137 3.082 3.082 0 0 1-2.113-2.686Z"></path>
                <path fill="#5324b3" d="M43.128 35.991a3.05 3.05 0 0 1 5.076-3.38 3.04 3.04 0 0 1-.848 4.229c-.808.544-1.77.64-2.626.365a3.02 3.02 0 0 1-1.602-1.214Z"></path>
                <path fill="#ff7cff" d="M78.471 44.92a3.034 3.034 0 0 1 1.252-4.119 3.049 3.049 0 0 1 4.13 1.256 3.066 3.066 0 0 1-1.257 4.129 3.073 3.073 0 0 1-2.371.21 3.012 3.012 0 0 1-1.754-1.476Z"></path>
                <path fill="#5324b3" d="M52.186 31.066a3.063 3.063 0 0 1 2.523-3.506 3.05 3.05 0 0 1 3.497 2.521 3.043 3.043 0 0 1-2.524 3.506l.01.003a3.088 3.088 0 0 1-1.424-.105 3.092 3.092 0 0 1-2.082-2.419Z"></path>
                <path fill="#9b54e6" d="M62.47 30.287a3.061 3.061 0 0 1 3.727-2.185 3.06 3.06 0 0 1 2.182 3.726 3.046 3.046 0 0 1-3.722 2.177c-.062-.009-.12-.028-.168-.043a3.054 3.054 0 0 1-2.019-3.675Z"></path>
                <path fill="#ff7cff" d="M72.699 38.022a3.06 3.06 0 0 1-.504-4.289 3.047 3.047 0 0 1 4.284-.495 3.061 3.061 0 0 1 .506 4.289 3.057 3.057 0 0 1-4.286.495Z"></path>
              </g>
              <g fill="#002147" fill-rule="nonzero">
                <path d="M128.593 66.847c-2.381 0-4.438-.528-6.172-1.586-1.735-1.057-3.07-2.586-4.006-4.586-.937-2-1.405-4.414-1.405-7.242 0-2.852.474-5.284 1.423-7.296.948-2.012 2.29-3.553 4.024-4.622 1.734-1.07 3.779-1.604 6.136-1.604 2.344 0 4.378.534 6.1 1.604 1.722 1.069 3.051 2.61 3.988 4.622.936 2.012 1.404 4.444 1.404 7.296 0 2.828-.465 5.239-1.395 7.233-.931 1.994-2.257 3.523-3.979 4.586-1.722 1.064-3.762 1.595-6.118 1.595Zm0-3.317c1.523 0 2.825-.35 3.906-1.051 1.082-.701 1.907-1.795 2.475-3.281.568-1.487.852-3.39.852-5.71 0-2.381-.287-4.327-.861-5.837-.574-1.511-1.402-2.626-2.484-3.345-1.081-.719-2.377-1.078-3.888-1.078-1.511 0-2.813.362-3.906 1.087-1.094.725-1.937 1.843-2.529 3.354-.592 1.511-.888 3.45-.888 5.819 0 2.332.296 4.238.888 5.719.592 1.48 1.435 2.571 2.529 3.272 1.093.701 2.395 1.051 3.906 1.051ZM142.478 72.322V47.741h3.879l.037 3.118c.229-.411.525-.818.888-1.223.362-.405.794-.78 1.296-1.124a6.479 6.479 0 0 1 1.722-.825 7.086 7.086 0 0 1 2.148-.308c1.474 0 2.777.341 3.907 1.024 1.129.683 2.012 1.728 2.646 3.136.634 1.408.952 3.193.952 5.357 0 2.175-.318 4-.952 5.474-.634 1.474-1.538 2.589-2.71 3.344-1.172.756-2.562 1.133-4.169 1.133-.774 0-1.468-.108-2.085-.326a5.953 5.953 0 0 1-1.631-.861 6.673 6.673 0 0 1-1.206-1.16 8.012 8.012 0 0 1-.824-1.242v9.064h-3.898Zm8.828-8.429c1.438 0 2.619-.559 3.544-1.677.924-1.118 1.387-2.867 1.387-5.248 0-2.042-.426-3.659-1.278-4.849-.852-1.19-2.07-1.785-3.653-1.785-1.631 0-2.864.619-3.698 1.858-.834 1.238-1.251 2.83-1.251 4.776 0 1.269.185 2.426.553 3.471.369 1.046.922 1.883 1.659 2.511.737.628 1.649.943 2.737.943ZM170.485 66.847c-1.777 0-3.342-.383-4.695-1.151-1.354-.767-2.408-1.864-3.164-3.29-.755-1.426-1.132-3.124-1.132-5.093 0-1.946.344-3.665 1.033-5.158.689-1.492 1.686-2.661 2.991-3.507 1.305-.846 2.876-1.269 4.713-1.269 1.8 0 3.323.387 4.568 1.16 1.245.773 2.187 1.858 2.828 3.254.64 1.396.96 3.042.96 4.939v1.287h-13.196c-.012 1.124.169 2.13.544 3.019.374.888.933 1.589 1.676 2.102.744.514 1.671.771 2.783.771 1.124 0 2.094-.254 2.909-.762.816-.507 1.351-1.262 1.605-2.265h3.589c-.218 1.281-.731 2.368-1.541 3.262a7.77 7.77 0 0 1-2.919 2.022 9.503 9.503 0 0 1-3.552.679ZM165.391 55.5h9.498c0-.979-.169-1.87-.507-2.674a4.188 4.188 0 0 0-1.55-1.903c-.695-.466-1.568-.698-2.619-.698-1.076 0-1.97.26-2.683.779a4.839 4.839 0 0 0-1.604 1.994 6.143 6.143 0 0 0-.535 2.502ZM181.198 66.485V47.741h3.788v2.701a5.94 5.94 0 0 1 1.224-1.432c.513-.447 1.148-.809 1.903-1.087.755-.278 1.629-.417 2.619-.417 1.173 0 2.257.232 3.254.698.997.465 1.798 1.19 2.402 2.175.604.985.906 2.257.906 3.816v12.29h-3.879V54.612c0-1.342-.359-2.339-1.078-2.991-.719-.653-1.647-.979-2.783-.979a6.26 6.26 0 0 0-2.175.38c-.689.254-1.245.638-1.668 1.151-.423.514-.634 1.158-.634 1.931v12.381h-3.879ZM201.156 66.485V40.273h9.081c1.873 0 3.55.32 5.03.961 1.481.64 2.647 1.583 3.499 2.828.852 1.244 1.278 2.773 1.278 4.586 0 1.74-.39 3.223-1.169 4.45-.78 1.227-1.867 2.163-3.263 2.81-1.396.646-3.012.969-4.849.969h-5.656v9.608h-3.951Zm3.933-12.78h5.565c1.668 0 3.027-.48 4.079-1.441 1.051-.961 1.577-2.239 1.577-3.834 0-1.619-.544-2.861-1.632-3.725-1.087-.864-2.477-1.296-4.169-1.296h-5.42v10.296ZM221.893 66.485V47.741h3.716v3.843c.314-.918.752-1.688 1.314-2.311a5.586 5.586 0 0 1 1.967-1.414 5.983 5.983 0 0 1 2.375-.48c.253 0 .495.015.725.045.229.03.411.082.543.154v3.734a1.938 1.938 0 0 0-.607-.145 21.719 21.719 0 0 0-.643-.054c-.822-.06-1.571-.018-2.248.127-.677.145-1.26.387-1.749.725-.49.338-.864.779-1.124 1.323-.26.544-.39 1.185-.39 1.922v11.275h-3.879ZM242.358 66.847c-1.776 0-3.341-.383-4.695-1.151-1.353-.767-2.407-1.864-3.163-3.29-.755-1.426-1.133-3.124-1.133-5.093 0-1.946.345-3.665 1.034-5.158.688-1.492 1.685-2.661 2.991-3.507 1.305-.846 2.876-1.269 4.713-1.269 1.8 0 3.323.387 4.568 1.16 1.244.773 2.187 1.858 2.827 3.254.641 1.396.961 3.042.961 4.939v1.287h-13.196c-.012 1.124.169 2.13.543 3.019.375.888.934 1.589 1.677 2.102.743.514 1.671.771 2.783.771 1.124 0 2.093-.254 2.909-.762.816-.507 1.351-1.262 1.604-2.265h3.589c-.217 1.281-.731 2.368-1.54 3.262a7.77 7.77 0 0 1-2.919 2.022 9.504 9.504 0 0 1-3.553.679ZM237.265 55.5h9.498c0-.979-.169-1.87-.507-2.674a4.188 4.188 0 0 0-1.55-1.903c-.695-.466-1.568-.698-2.62-.698-1.075 0-1.969.26-2.682.779a4.849 4.849 0 0 0-1.605 1.994 6.158 6.158 0 0 0-.534 2.502ZM259.942 66.847c-1.306 0-2.529-.205-3.671-.616a6.748 6.748 0 0 1-2.864-1.94c-.768-.882-1.248-2.012-1.441-3.389h3.462c.157.713.456 1.302.897 1.767.441.465.973.81 1.595 1.033.623.224 1.29.336 2.003.336 1.185 0 2.145-.215 2.883-.644.737-.429 1.105-1.091 1.105-1.985 0-.64-.199-1.154-.598-1.541-.399-.386-1.021-.67-1.867-.852l-3.734-.888c-1.547-.362-2.786-.939-3.716-1.731-.931-.791-1.402-1.9-1.414-3.326 0-1.1.275-2.079.825-2.937.55-.858 1.371-1.532 2.465-2.021 1.094-.489 2.444-.734 4.051-.734 2.115 0 3.816.471 5.103 1.414 1.287.942 1.949 2.308 1.985 4.097h-3.353c-.121-.859-.511-1.532-1.17-2.022-.658-.489-1.525-.734-2.601-.734-1.112 0-2.024.221-2.737.662-.713.441-1.07 1.115-1.07 2.021 0 .616.263 1.103.789 1.459.526.357 1.302.65 2.329.879l3.553.889c.919.241 1.674.559 2.266.951.592.393 1.058.825 1.396 1.296.338.472.577.961.716 1.469.139.507.208.985.208 1.432 0 1.184-.299 2.196-.897 3.036-.598.84-1.447 1.486-2.547 1.94-1.099.453-2.417.679-3.951.679ZM277.398 66.847c-1.692 0-3.196-.371-4.514-1.114-1.317-.744-2.35-1.837-3.099-3.281-.75-1.445-1.124-3.2-1.124-5.266 0-1.946.347-3.656 1.042-5.13.695-1.475 1.695-2.623 3-3.444 1.305-.822 2.87-1.233 4.695-1.233 1.414 0 2.665.275 3.752.825a7.074 7.074 0 0 1 2.656 2.293c.683.979 1.097 2.121 1.242 3.426h-3.372a4.163 4.163 0 0 0-.689-1.722 4.002 4.002 0 0 0-1.432-1.278c-.592-.321-1.299-.481-2.121-.481-1.51 0-2.737.55-3.68 1.65-.942 1.1-1.414 2.785-1.414 5.057 0 2.079.442 3.735 1.324 4.967.882 1.233 2.157 1.849 3.825 1.849.821 0 1.528-.169 2.12-.507a4.167 4.167 0 0 0 1.423-1.306 4.212 4.212 0 0 0 .68-1.649h3.299c-.145 1.257-.559 2.362-1.241 3.317a6.97 6.97 0 0 1-2.656 2.23c-1.088.531-2.326.797-3.716.797ZM287.422 66.485V47.741h3.716v3.843c.314-.918.752-1.688 1.314-2.311a5.586 5.586 0 0 1 1.967-1.414 5.983 5.983 0 0 1 2.375-.48 5.6 5.6 0 0 1 .725.045c.23.03.411.082.544.154v3.734a1.945 1.945 0 0 0-.608-.145 21.44 21.44 0 0 0-.643-.054c-.822-.06-1.571-.018-2.248.127-.677.145-1.26.387-1.749.725a3.32 3.32 0 0 0-1.124 1.323c-.26.544-.39 1.185-.39 1.922v11.275h-3.879ZM300.075 66.485V47.741h3.734v18.744h-3.734Zm-.091-22.369v-3.825h3.898v3.825h-3.898ZM317.114 66.847c-1.051 0-1.945-.139-2.683-.417-.737-.278-1.344-.634-1.821-1.069a5.558 5.558 0 0 1-1.124-1.378 8.612 8.612 0 0 1-.626-1.341l-.416 3.843h-2.919V39.548h3.916v11.039c.169-.326.419-.676.752-1.051a6.074 6.074 0 0 1 1.251-1.051 6.903 6.903 0 0 1 1.749-.798c.664-.205 1.414-.308 2.248-.308 2.332 0 4.184.822 5.556 2.465 1.371 1.644 2.057 4.036 2.057 7.178 0 1.982-.296 3.707-.888 5.176-.592 1.468-1.478 2.61-2.656 3.426-1.178.815-2.643 1.223-4.396 1.223Zm-.761-2.918c1.426 0 2.589-.556 3.489-1.668.901-1.112 1.351-2.9 1.351-5.365 0-2.127-.42-3.753-1.26-4.877-.84-1.123-2.051-1.685-3.634-1.685-1.136 0-2.061.25-2.774.752-.713.501-1.236 1.242-1.568 2.22-.332.979-.504 2.176-.516 3.59 0 2.501.386 4.299 1.16 5.392.773 1.094 2.024 1.641 3.752 1.641ZM327.555 66.485V47.741h3.735v18.744h-3.735Zm-.09-22.369v-3.825h3.897v3.825h-3.897ZM335.006 66.485V47.741h3.788v2.701a5.94 5.94 0 0 1 1.224-1.432c.513-.447 1.148-.809 1.903-1.087.755-.278 1.629-.417 2.62-.417 1.172 0 2.256.232 3.253.698.997.465 1.798 1.19 2.402 2.175.604.985.907 2.257.907 3.816v12.29h-3.88V54.612c0-1.342-.359-2.339-1.078-2.991-.719-.653-1.647-.979-2.783-.979a6.26 6.26 0 0 0-2.175.38c-.689.254-1.245.638-1.668 1.151-.423.514-.634 1.158-.634 1.931v12.381h-3.879ZM362.414 72.684c-3.046 0-5.402-.426-7.07-1.278-1.667-.852-2.501-2.039-2.501-3.562 0-.664.16-1.229.48-1.695.32-.465.701-.848 1.142-1.151.441-.302.849-.54 1.224-.716.374-.175.616-.299.725-.371a423.91 423.91 0 0 0-.789-.462 3.115 3.115 0 0 1-.861-.762c-.254-.32-.38-.74-.38-1.26 0-.604.287-1.163.861-1.676.574-.514 1.441-.892 2.601-1.133-1.136-.556-2.018-1.305-2.647-2.248-.628-.943-.942-1.946-.942-3.009 0-1.221.344-2.275 1.033-3.163.689-.889 1.658-1.568 2.909-2.04 1.251-.471 2.722-.707 4.414-.707 1.245 0 2.281.139 3.109.417a8.818 8.818 0 0 1 2.293 1.16c.23-.084.559-.214.988-.389.429-.176.897-.366 1.405-.571.507-.206.994-.405 1.459-.598l1.133-.472-.018 3.372-3.263.598c.169.363.305.761.408 1.196.103.435.154.834.154 1.197a5.404 5.404 0 0 1-.888 3c-.592.912-1.481 1.64-2.665 2.184-1.184.544-2.665.816-4.441.816-.169 0-.387-.003-.653-.009a6.02 6.02 0 0 1-.67-.046c-1.124.037-1.898.167-2.321.39-.423.224-.634.469-.634.734 0 .339.272.568.816.689.543.121 1.438.224 2.682.308.448.037 1.019.073 1.713.109.695.036 1.466.085 2.312.145 2.054.121 3.622.635 4.704 1.541 1.081.906 1.622 2.109 1.622 3.607 0 1.716-.779 3.121-2.338 4.215-1.559 1.093-3.928 1.64-7.106 1.64Zm.671-2.374c1.655 0 2.906-.239 3.752-.716.846-.478 1.269-1.188 1.269-2.13 0-.701-.272-1.275-.816-1.722-.544-.448-1.36-.707-2.447-.78l-5.003-.326a2.972 2.972 0 0 0-1.478.326 3.26 3.26 0 0 0-1.205 1.006 2.356 2.356 0 0 0-.471 1.423c0 .943.519 1.665 1.559 2.166 1.039.502 2.652.753 4.84.753Zm-.689-13.324c1.256 0 2.269-.305 3.036-.915.767-.61 1.151-1.49 1.151-2.638 0-1.184-.384-2.099-1.151-2.746-.767-.646-1.78-.97-3.036-.97-1.269 0-2.293.327-3.073.979-.779.653-1.169 1.565-1.169 2.737 0 1.112.372 1.982 1.115 2.611.743.628 1.785.942 3.127.942Z"></path>
              </g>
            </svg>
